# xmcd
#
# Track frame offsets: 
#        150
#        16696
#        26777
#        39147
#        52847
#        68509
#        82198
#        97184
#        108259
#        121899
#        136342
#        150127
#        164958
#        177005
#
# Disc length: 2506 seconds
#
# Revision: 0
# Processed by: cddbd v1.5.2PL0 Copyright (c) Steve Scherf et al.
# Submitted via: ExactAudioCopy v0.99pb5
#
DISCID=a509c80e
DTITLE=SANTIAGO FERRON - #TOCANDO_O_TERROR
DYEAR=2010
DGENRE=SERTANEJO
TTITLE0=ECLIPSE (REPLAY)
TTITLE1=TOCANDO O TERROR
TTITLE2=NE NAMORA
TTITLE3=PAPARAZZI
TTITLE4=SEM TER VOCÊ
TTITLE5=SE FOR PRA MERECER
TTITLE6=DESENHO ANIMADO
TTITLE7=ESPERA AMANHECER
TTITLE8=TÁ COM MEDO DE AMAR
TTITLE9=PESSOA CERTA NA HORA ERRADA
TTITLE10=VAGALUME
TTITLE11=SOLDADO DE DEUS
TTITLE12=HOMEM DO FUTURO
TTITLE13=LUA
EXTD=
EXTT0=
EXTT1=
EXTT2=
EXTT3=
EXTT4=
EXTT5=
EXTT6=
EXTT7=
EXTT8=
EXTT9=
EXTT10=
EXTT11=
EXTT12=
EXTT13=
PLAYORDER=
